<svg width="960" height="640" viewBox="0 0 960 640" fill="none" xmlns="http://www.w3.org/2000/svg">
  <rect width="960" height="640" rx="28" fill="#EEF4FF"/>
  <rect x="72" y="88" width="816" height="464" rx="24" fill="white" stroke="#C9D8F4" stroke-width="2"/>
  <rect x="122" y="140" width="330" height="32" rx="8" fill="#DCE8FF"/>
  <rect x="122" y="190" width="266" height="18" rx="6" fill="#E9F0FF"/>
  <rect x="122" y="220" width="220" height="18" rx="6" fill="#E9F0FF"/>
  <rect x="122" y="250" width="290" height="18" rx="6" fill="#E9F0FF"/>

  <rect x="500" y="150" width="320" height="300" rx="16" fill="#F8FBFF" stroke="#D3E1FA" stroke-width="2"/>
  <polyline points="560,365 620,290 680,320 740,230 790,260" fill="none" stroke="#0D5FD6" stroke-width="10" stroke-linecap="round" stroke-linejoin="round"/>
  <circle cx="560" cy="365" r="11" fill="#0D5FD6"/>
  <circle cx="620" cy="290" r="11" fill="#0D5FD6"/>
  <circle cx="680" cy="320" r="11" fill="#0D5FD6"/>
  <circle cx="740" cy="230" r="11" fill="#0D5FD6"/>
  <circle cx="790" cy="260" r="11" fill="#0D5FD6"/>

  <rect x="122" y="330" width="300" height="170" rx="16" fill="#F8FBFF" stroke="#D3E1FA" stroke-width="2"/>
  <rect x="150" y="358" width="244" height="14" rx="6" fill="#DDE9FF"/>
  <rect x="150" y="386" width="190" height="14" rx="6" fill="#E8F0FF"/>
  <rect x="150" y="414" width="166" height="14" rx="6" fill="#E8F0FF"/>
  <rect x="150" y="442" width="212" height="14" rx="6" fill="#E8F0FF"/>

  <rect x="72" y="508" width="816" height="44" rx="14" fill="#E3EDFF"/>
</svg>
