<svg width="960" height="640" viewBox="0 0 960 640" fill="none" xmlns="http://www.w3.org/2000/svg">
  <rect width="960" height="640" rx="28" fill="#F1F4FB"/>
  <rect x="72" y="90" width="816" height="460" rx="24" fill="white" stroke="#D1D9EC" stroke-width="2"/>

  <rect x="124" y="136" width="712" height="92" rx="18" fill="#F7F9FE" stroke="#E1E7F5" stroke-width="2"/>
  <rect x="162" y="168" width="220" height="18" rx="6" fill="#DDE6FA"/>
  <rect x="398" y="168" width="120" height="18" rx="6" fill="#E7EEFC"/>
  <rect x="534" y="168" width="120" height="18" rx="6" fill="#E7EEFC"/>
  <rect x="670" y="168" width="120" height="18" rx="6" fill="#E7EEFC"/>

  <rect x="124" y="256" width="338" height="250" rx="18" fill="#F7F9FE" stroke="#E1E7F5" stroke-width="2"/>
  <rect x="156" y="290" width="274" height="16" rx="6" fill="#DDE6FA"/>
  <rect x="156" y="318" width="212" height="16" rx="6" fill="#E7EEFC"/>
  <rect x="156" y="346" width="240" height="16" rx="6" fill="#E7EEFC"/>
  <rect x="156" y="374" width="198" height="16" rx="6" fill="#E7EEFC"/>

  <rect x="498" y="256" width="338" height="250" rx="18" fill="#F7F9FE" stroke="#E1E7F5" stroke-width="2"/>
  <circle cx="668" cy="350" r="64" fill="#E5ECFC"/>
  <circle cx="634" cy="354" r="36" fill="#0A4BAC" fill-opacity="0.82"/>
  <circle cx="689" cy="339" r="30" fill="#0D5FD6" fill-opacity="0.82"/>
  <circle cx="712" cy="366" r="24" fill="#2A84F4" fill-opacity="0.82"/>
  <rect x="570" y="402" width="194" height="14" rx="6" fill="#DDE6FA"/>
  <rect x="600" y="430" width="134" height="14" rx="6" fill="#E7EEFC"/>

  <path d="M462 382H498" stroke="#A9BADF" stroke-width="4" stroke-linecap="round"/>
  <path d="M446 320H498" stroke="#A9BADF" stroke-width="4" stroke-linecap="round"/>
  <path d="M446 444H498" stroke="#A9BADF" stroke-width="4" stroke-linecap="round"/>
</svg>
